<svg width="24" height="24" viewBox="0 0 24 24" fill="none" xmlns="http://www.w3.org/2000/svg">
<mask id="mask0_1362_3276" style="mask-type:luminance" maskUnits="userSpaceOnUse" x="0" y="0" width="24" height="24">
<path d="M24 0H0V24H24V0Z" fill="white"/>
</mask>
<g mask="url(#mask0_1362_3276)">
<path d="M20.6202 8.7C19.5802 4.07 15.5402 2 12.0002 2C12.0002 2 12.0002 2 11.9902 2C8.46024 2 4.43024 4.07 3.38024 8.69C2.20024 13.85 5.36024 18.22 8.22024 20.98C9.28024 22 10.6402 22.51 12.0002 22.51C13.3602 22.51 14.7202 22 15.7702 20.98C18.6302 18.22 21.7902 13.86 20.6202 8.7Z" fill="#009245"/>
<path d="M10.7499 13.7476C10.5599 13.7476 10.3699 13.6776 10.2199 13.5276L8.71994 12.0276C8.42994 11.7376 8.42994 11.2576 8.71994 10.9675C9.00994 10.6775 9.48994 10.6775 9.77994 10.9675L10.7499 11.9376L14.2199 8.4675C14.5099 8.1775 14.9899 8.1775 15.2799 8.4675C15.5699 8.7575 15.5699 9.2375 15.2799 9.5275L11.2799 13.5276C11.1299 13.6776 10.9399 13.7476 10.7499 13.7476Z" fill="white"/>
</g>
</svg>
