<svg width="16" height="16" viewBox="0 0 16 16" fill="none" xmlns="http://www.w3.org/2000/svg">
<path d="M10.6693 0C10.8714 0 11.0652 0.0802767 11.2082 0.22317C11.3511 0.366064 11.4314 0.559869 11.4314 0.761951V1.5239H15.2418V6.0956H13.7032L15.7959 11.8445C15.945 12.2313 16.0137 12.6444 15.9977 13.0586C15.9817 13.4728 15.8814 13.8794 15.7029 14.2535C15.5244 14.6276 15.2714 14.9614 14.9594 15.2344C14.6475 15.5074 14.2831 15.7139 13.8885 15.8413C13.494 15.9687 13.0777 16.0143 12.6649 15.9753C12.2522 15.9363 11.8517 15.8136 11.488 15.6146C11.1244 15.4156 10.8051 15.1445 10.5498 14.8179C10.2945 14.4913 10.1085 14.116 10.0032 13.7151H6.7628C6.5896 14.3838 6.19442 14.974 5.64199 15.3888C5.08955 15.8037 4.4126 16.0187 3.72197 15.9987C3.03135 15.9787 2.36798 15.7248 1.8405 15.2787C1.31301 14.8325 0.952676 14.2205 0.818487 13.5429C0.571516 13.4139 0.364634 13.2197 0.22033 12.9814C0.076026 12.7431 -0.000178462 12.4698 3.13834e-07 12.1912V4.5717C3.13834e-07 4.36962 0.0802919 4.17582 0.223212 4.03292C0.366132 3.89003 0.559973 3.80975 0.762092 3.80975H6.09674C6.29885 3.80975 6.4927 3.89003 6.63562 4.03292C6.77854 4.17582 6.85883 4.36962 6.85883 4.5717V8.38146C6.85883 8.58354 6.93912 8.77734 7.08204 8.92024C7.22496 9.06313 7.4188 9.14341 7.62092 9.14341H9.1451C9.34722 9.14341 9.54106 9.06313 9.68398 8.92024C9.8269 8.77734 9.9072 8.58354 9.9072 8.38146V1.5239H7.62092V0H10.6693ZM12.9556 11.4293C12.6314 11.4294 12.3158 11.5328 12.0544 11.7245C11.7931 11.9161 11.5997 12.1861 11.5023 12.4952C11.4049 12.8043 11.4086 13.1364 11.5128 13.4433C11.6171 13.7501 11.8164 14.0157 12.082 14.2016C12.3475 14.3874 12.6654 14.4838 12.9894 14.4767C13.3135 14.4696 13.6268 14.3594 13.884 14.1621C14.1411 13.9648 14.3286 13.6907 14.4193 13.3796C14.51 13.0684 14.4991 12.7365 14.3883 12.432L14.3753 12.3985C14.2637 12.1128 14.0685 11.8675 13.8152 11.6946C13.5619 11.5217 13.2623 11.4292 12.9556 11.4293ZM3.81046 11.4293C3.40622 11.4293 3.01854 11.5898 2.7327 11.8756C2.44686 12.1614 2.28628 12.549 2.28628 12.9532C2.28628 13.3573 2.44686 13.7449 2.7327 14.0307C3.01854 14.3165 3.40622 14.4771 3.81046 14.4771C4.2147 14.4771 4.60238 14.3165 4.88822 14.0307C5.17406 13.7449 5.33464 13.3573 5.33464 12.9532C5.33464 12.549 5.17406 12.1614 4.88822 11.8756C4.60238 11.5898 4.2147 11.4293 3.81046 11.4293ZM5.33464 5.33365H1.52418V6.85755H5.33464V5.33365ZM13.7177 3.0478H11.4314V4.5717H13.7177V3.0478Z" fill="white"/>
</svg>
