<svg width="50" height="50" viewBox="0 0 50 50" fill="none" xmlns="http://www.w3.org/2000/svg">
<g clip-path="url(#clip0_1003_3158)">
<path fill-rule="evenodd" clip-rule="evenodd" d="M17.1875 32.8122C17.1875 32.1607 16.7828 31.5778 16.1734 31.3497L3.67343 26.6622C3.19374 26.4825 2.65625 26.5481 2.23437 26.8403C1.81406 27.1325 1.5625 27.6122 1.5625 28.1247V43.7499C1.5625 44.4014 1.96719 44.9843 2.57656 45.2124L15.0765 49.8999C15.5562 50.0796 16.0937 50.014 16.5156 49.7218C16.9359 49.4296 17.1875 48.9499 17.1875 48.4374V32.8122ZM4.68749 42.667L14.0625 46.1827V33.8951L4.68749 30.3794V42.667Z" fill="#009245"/>
<path fill-rule="evenodd" clip-rule="evenodd" d="M15.0766 31.3497C14.4672 31.5778 14.0625 32.1607 14.0625 32.8122V48.4374C14.0625 48.9499 14.3141 49.4296 14.7344 49.7218C15.1563 50.014 15.6938 50.0796 16.1735 49.8999L28.6734 45.2124C29.2828 44.9843 29.6875 44.4014 29.6875 43.7499V28.1247C29.6875 27.6122 29.4359 27.1325 29.0156 26.8403C28.5938 26.5481 28.0563 26.4825 27.5766 26.6622L15.0766 31.3497ZM17.1875 33.8951V46.1827L26.5625 42.667V30.3794L17.1875 33.8951Z" fill="#009245"/>
<path fill-rule="evenodd" clip-rule="evenodd" d="M2.57661 26.6622C1.96724 26.8903 1.56255 27.4731 1.56255 28.1247C1.56255 28.7763 1.96724 29.3591 2.57661 29.5872L15.0766 34.2748C15.4297 34.4076 15.8203 34.4076 16.1735 34.2748L28.6734 29.5872C29.2828 29.3591 29.6875 28.7763 29.6875 28.1247C29.6875 27.4731 29.2828 26.8903 28.6734 26.6622L16.1735 21.9746C15.8203 21.8418 15.4297 21.8418 15.0766 21.9746L2.57661 26.6622ZM7.57504 28.1247L15.625 31.1435L23.675 28.1247L15.625 25.1059L7.57504 28.1247Z" fill="#009245"/>
<path fill-rule="evenodd" clip-rule="evenodd" d="M32.9333 7.81354C35.4646 7.87813 37.5 9.95315 37.5 12.5001C37.5 13.3626 36.8 14.0626 35.9375 14.0626C35.1021 14.0626 34.4187 13.4053 34.3771 12.5803L34.3729 12.4198C34.3312 11.5948 33.6479 10.9375 32.8125 10.9375C31.95 10.9375 31.25 11.6375 31.25 12.5001C31.25 13.3626 31.95 14.0626 32.8125 14.0626C33.675 14.0626 34.375 14.7626 34.375 15.6251C34.375 16.4876 33.675 17.1876 32.8125 17.1876C30.225 17.1876 28.125 15.0876 28.125 12.5001C28.125 9.91253 30.225 7.8125 32.8125 7.8125L32.9333 7.81354Z" fill="#009245"/>
<path fill-rule="evenodd" clip-rule="evenodd" d="M32.8125 17.1874C33.675 17.1874 34.375 17.8874 34.375 18.7499C34.375 19.6125 33.675 20.3125 32.8125 20.3125C31.95 20.3125 31.25 19.6125 31.25 18.7499C31.25 17.8874 30.55 17.1874 29.6875 17.1874C28.825 17.1874 28.125 17.8874 28.125 18.7499C28.125 21.3375 30.225 23.4375 32.8125 23.4375C35.4 23.4375 37.5 21.3375 37.5 18.7499C37.5 16.1624 35.4 14.0624 32.8125 14.0624C31.95 14.0624 31.25 14.7624 31.25 15.6249C31.25 16.4874 31.95 17.1874 32.8125 17.1874Z" fill="#009245"/>
<path fill-rule="evenodd" clip-rule="evenodd" d="M31.25 7.03127V9.37505C31.25 10.2376 31.95 10.9376 32.8125 10.9376C33.675 10.9376 34.375 10.2376 34.375 9.37505V7.03127C34.375 6.16876 33.675 5.46875 32.8125 5.46875C31.95 5.46875 31.25 6.16876 31.25 7.03127Z" fill="#009245"/>
<path fill-rule="evenodd" clip-rule="evenodd" d="M31.25 21.875V24.2188C31.25 25.0813 31.95 25.7813 32.8125 25.7813C33.675 25.7813 34.375 25.0813 34.375 24.2188V21.875C34.375 21.0125 33.675 20.3125 32.8125 20.3125C31.95 20.3125 31.25 21.0125 31.25 21.875Z" fill="#009245"/>
<path fill-rule="evenodd" clip-rule="evenodd" d="M25.6187 28.8551L23.4453 28.0394C23.289 27.98 23.1422 27.8972 23.0125 27.7925C19.4609 24.9269 17.1875 20.5393 17.1875 15.6252C17.1875 7.00165 24.1891 0 32.8125 0C41.4359 0 48.4374 7.00165 48.4374 15.6252C48.4374 24.2487 41.4359 31.2504 32.8125 31.2504C30.9859 31.2504 29.2328 30.9363 27.6031 30.3598C27.4109 30.291 27.2375 30.1879 27.0906 30.0566C26.4765 30.0379 25.9062 29.6551 25.6765 29.0441C25.6531 28.9816 25.6344 28.9176 25.6187 28.8551ZM29.6328 27.716C30.6484 27.9832 31.714 28.1253 32.8125 28.1253C39.7109 28.1253 45.3125 22.5237 45.3125 15.6252C45.3125 8.72667 39.7109 3.12504 32.8125 3.12504C25.914 3.12504 20.3125 8.72667 20.3125 15.6252C20.3125 19.4706 22.0531 22.9128 24.7875 25.205L28.6734 26.6628L28.7297 26.6847L28.7859 26.7097L28.8062 26.7206L28.8515 26.7425L28.875 26.755L28.8922 26.7644L28.9109 26.7753L28.9344 26.7894L28.9703 26.8128L28.9937 26.8269L29.0047 26.8347L29.0156 26.841L29.0906 26.8972C29.1187 26.9191 29.1469 26.9425 29.1719 26.966L29.1797 26.9722L29.1968 26.9894L29.2328 27.0238L29.25 27.041L29.2625 27.0535L29.2765 27.0691L29.2984 27.0925L29.3234 27.1253L29.339 27.1425L29.3469 27.1519L29.3578 27.1644L29.4109 27.2378C29.4312 27.2675 29.45 27.2972 29.4687 27.3269L29.4719 27.3331L29.4828 27.3535L29.5094 27.4003L29.5187 27.4207L29.5281 27.4363L29.5359 27.4566L29.55 27.4847L29.5656 27.5207L29.575 27.5441L29.5797 27.5566L29.5859 27.5707L29.6078 27.6363L29.614 27.6535L29.6156 27.6597L29.6328 27.716Z" fill="#009245"/>
</g>
<defs>
<clipPath id="clip0_1003_3158">
<rect width="50" height="50" fill="white"/>
</clipPath>
</defs>
</svg>
