<svg width="50" height="50" viewBox="0 0 50 50" fill="none" xmlns="http://www.w3.org/2000/svg">
<path d="M25 30.9824C22.1143 30.9824 19.3994 29.8594 17.3584 27.8184C15.3174 25.7774 14.1943 23.0625 14.1943 20.1768C14.1943 17.291 15.3174 14.5762 17.3584 12.5352C19.3994 10.4941 22.1143 9.37109 25 9.37109C27.8857 9.37109 30.6006 10.4941 32.6416 12.5352C34.6826 14.5762 35.8057 17.291 35.8057 20.1768C35.8057 23.0625 34.6826 25.7774 32.6416 27.8184C30.6006 29.8594 27.8857 30.9824 25 30.9824ZM25 11.8125C20.3857 11.8125 16.6357 15.5674 16.6357 20.1768C16.6357 24.791 20.3906 28.541 25 28.541C29.6094 28.541 33.3643 24.7861 33.3643 20.1768C33.3643 15.5625 29.6143 11.8125 25 11.8125Z" fill="#009245"/>
<path d="M23.4766 24.9795L19.502 21.0049L21.2305 19.2812L23.4766 21.5273L28.7695 16.2344L30.4981 17.958L23.4766 24.9795Z" fill="#009245"/>
<path d="M25 38.5293C24.2236 38.5293 23.4424 38.3389 22.7344 37.9629C22.5879 37.8848 22.4463 37.7969 22.3096 37.709C22.0557 37.5381 21.8164 37.3428 21.6016 37.123L19.7363 35.2529C19.2871 34.8037 18.6963 34.5596 18.0615 34.5596H15.4248C12.7734 34.5596 10.6152 32.4014 10.6152 29.75V27.1133C10.6152 26.4883 10.3613 25.8828 9.92188 25.4385L8.05664 23.5732C6.18164 21.6982 6.18164 18.6465 8.05664 16.7715L9.92188 14.9062C10.3613 14.4668 10.6152 13.8564 10.6152 13.2314V10.5947C10.6152 7.94336 12.7734 5.78516 15.4248 5.78516H18.0615C18.6914 5.78516 19.2871 5.54102 19.7363 5.0918L21.6016 3.22656C23.4766 1.35156 26.5283 1.35156 28.3984 3.22656L30.2637 5.0918C30.7129 5.54102 31.3037 5.78516 31.9385 5.78516H34.5752C37.2266 5.78516 39.3848 7.94336 39.3848 10.5947V13.2314C39.3848 13.8613 39.6289 14.457 40.0781 14.9062L41.9434 16.7715C43.8184 18.6465 43.8184 21.6982 41.9434 23.5732L40.0781 25.4385C39.6289 25.8828 39.3848 26.4785 39.3848 27.1133V29.75C39.3848 32.4014 37.2266 34.5596 34.5752 34.5596H31.9385C31.3037 34.5596 30.7129 34.8037 30.2637 35.2529L28.3984 37.1182C28.1787 37.3379 27.9395 37.5332 27.6855 37.7041C27.5537 37.792 27.4072 37.8799 27.2607 37.958C26.5576 38.3389 25.7764 38.5293 25 38.5293ZM15.4199 8.23144C14.1162 8.23144 13.0518 9.29102 13.0518 10.5996V13.2363C13.0518 14.5205 12.5537 15.7266 11.6455 16.6348L9.78027 18.5C8.85742 19.4228 8.85742 20.9219 9.78027 21.8447L11.6455 23.71C12.5537 24.6182 13.0518 25.8242 13.0518 27.1084V29.7451C13.0518 31.0488 14.1113 32.1133 15.4199 32.1133H18.0566C19.3408 32.1133 20.5469 32.6113 21.4551 33.5195L23.3203 35.3848C23.4277 35.4922 23.5449 35.5898 23.6719 35.6777C23.7402 35.7217 23.8037 35.7656 23.877 35.7998C24.5752 36.1758 25.4102 36.1758 26.1084 35.7998C26.1816 35.7607 26.25 35.7217 26.3135 35.6777C26.4404 35.5898 26.5625 35.4922 26.6699 35.3848L28.5352 33.5195C29.4434 32.6113 30.6494 32.1133 31.9336 32.1133H34.5703C35.874 32.1133 36.9385 31.0537 36.9385 29.7451V27.1084C36.9385 25.8242 37.4365 24.6182 38.3447 23.71L40.21 21.8447C41.1328 20.9219 41.1328 19.4228 40.21 18.4951L38.3447 16.6299C37.4365 15.7217 36.9385 14.5156 36.9385 13.2314V10.5947C36.9385 9.29101 35.8789 8.22656 34.5703 8.22656H31.9336C30.6494 8.22656 29.4434 7.72852 28.5352 6.81543L26.6699 4.9502C26.2207 4.50098 25.6299 4.25684 24.9951 4.25684C24.3652 4.25684 23.7695 4.50098 23.3203 4.9502L21.4551 6.81543C20.5469 7.72363 19.3408 8.22168 18.0566 8.22168H15.4199V8.23144Z" fill="#009245"/>
<path d="M19.8633 48.1904L16.1377 43.6104L10.3027 44.4941L15.0879 32.1211H18.0615C19.3457 32.1211 20.5518 32.6191 21.46 33.5273L23.3252 35.3926C23.4326 35.5 23.5498 35.5977 23.6768 35.6855L24.4824 36.2275L19.8633 48.1904ZM17.1533 40.9883L19.1016 43.3857L21.543 37.0674L19.7363 35.2559C19.2871 34.8066 18.6963 34.5625 18.0615 34.5625H16.7627L14.1016 41.4473L17.1533 40.9883ZM30.1367 48.1855L25.5127 36.2324L26.3184 35.6904C26.4453 35.6074 26.5625 35.5098 26.6699 35.3975L28.5352 33.5322C29.4434 32.624 30.6494 32.126 31.9336 32.126H34.9121L39.6924 44.499L33.8574 43.6152L30.1367 48.1855ZM28.457 37.0674L30.8984 43.3857L32.8467 40.9883L35.8984 41.4522L33.2373 34.5674H31.9385C31.3037 34.5674 30.7129 34.8115 30.2637 35.2607L28.457 37.0674Z" fill="#009245"/>
</svg>
