<svg width="69" height="43" viewBox="0 0 69 43" fill="none" xmlns="http://www.w3.org/2000/svg">
<path d="M68.4582 5.41667C68.4582 2.4375 66.0207 0 63.0415 0H57.6248C56.1353 0 54.9165 1.21875 54.9165 2.70833C54.9165 4.19792 56.1353 5.41667 57.6248 5.41667H63.0415V12.5937L53.6165 24.375H44.0832V13.5417C44.0832 12.0521 42.8644 10.8333 41.3748 10.8333H33.2498C27.2644 10.8333 22.4165 15.6812 22.4165 21.6667V27.0833C22.4165 28.5729 23.6353 29.7917 25.1248 29.7917H27.8332C27.8332 34.2875 31.4623 37.9167 35.9582 37.9167C40.454 37.9167 44.0832 34.2875 44.0832 29.7917H53.6165C55.2686 29.7917 56.8123 29.0333 57.8415 27.7604L67.2665 15.9792C68.0519 15.0042 68.4582 13.8125 68.4582 12.5937V5.41667ZM35.9582 32.5C34.4686 32.5 33.2498 31.2812 33.2498 29.7917H38.6665C38.6665 31.2812 37.4478 32.5 35.9582 32.5Z" fill="white"/>
<path d="M23.2498 2.71094H31.3748C32.8644 2.71094 34.0832 3.92969 34.0832 5.41927C34.0832 6.90885 32.8644 8.1276 31.3748 8.1276H23.2498C21.7603 8.1276 20.5415 6.90885 20.5415 5.41927C20.5415 3.92969 21.7603 2.71094 23.2498 2.71094ZM58.4582 21.6693C53.9623 21.6693 50.3332 25.2984 50.3332 29.7943C50.3332 34.2901 53.9623 37.9193 58.4582 37.9193C62.954 37.9193 66.5832 34.2901 66.5832 29.7943C66.5832 25.2984 62.954 21.6693 58.4582 21.6693ZM58.4582 32.5026C56.9686 32.5026 55.7498 31.2839 55.7498 29.7943C55.7498 28.3047 56.9686 27.0859 58.4582 27.0859C59.9478 27.0859 61.1665 28.3047 61.1665 29.7943C61.1665 31.2839 59.9478 32.5026 58.4582 32.5026Z" fill="white"/>
<line x1="0.5" y1="17.9609" x2="16.5" y2="17.9609" stroke="white" stroke-linecap="round"/>
<line opacity="0.27" x1="5.5" y1="9.96094" x2="21.5" y2="9.96094" stroke="white" stroke-linecap="round"/>
<line opacity="0.27" x1="5.5" y1="29.9609" x2="21.5" y2="29.9609" stroke="white" stroke-linecap="round"/>
<line x1="14.5" y1="41.9609" x2="30.5" y2="41.9609" stroke="white" stroke-linecap="round"/>
</svg>
