<svg width="17" height="15" viewBox="0 0 17 15" fill="none" xmlns="http://www.w3.org/2000/svg">
<path d="M6.72222 10.2209L9.05556 10.9987C9.05556 10.9987 14.8889 9.83203 15.6667 9.83203C16.4444 9.83203 16.4444 10.6098 15.6667 11.3876C14.8889 12.1653 12.1667 14.4986 9.83333 14.4986C7.5 14.4986 5.94444 13.332 4.38889 13.332H0.5" stroke="white" stroke-linecap="round" stroke-linejoin="round"/>
<path d="M0.5 8.6665C1.27778 7.88874 2.83333 6.7221 4.38889 6.7221C5.94444 6.7221 9.63889 8.27762 10.2222 9.05538C10.8056 9.83314 9.05556 10.9998 9.05556 10.9998M5.16667 4.38881V1.27776C5.16667 1.07149 5.24861 0.87366 5.39447 0.727801C5.54033 0.581943 5.73817 0.5 5.94444 0.5H15.2778C15.4841 0.5 15.6819 0.581943 15.8278 0.727801C15.9736 0.87366 16.0556 1.07149 16.0556 1.27776V7.49986" stroke="white" stroke-linecap="round" stroke-linejoin="round"/>
<path d="M8.66626 0.5H12.5551V3.99993H8.66626V0.5Z" stroke="white" stroke-linecap="round" stroke-linejoin="round"/>
</svg>
