<svg width="50" height="50" viewBox="0 0 50 50" fill="none" xmlns="http://www.w3.org/2000/svg">
<g clip-path="url(#clip0_1003_3150)">
<path d="M13.542 39.582H5.72949C4.86699 39.582 4.16699 38.882 4.16699 38.0195C4.16699 37.157 4.86699 36.457 5.72949 36.457H13.542C14.4045 36.457 15.1045 37.157 15.1045 38.0195C15.1045 38.882 14.4045 39.582 13.542 39.582ZM29.167 39.582H21.8753C21.0128 39.582 20.3128 38.882 20.3128 38.0195C20.3128 37.157 21.0128 36.457 21.8753 36.457H27.9045L31.9232 17.707H9.89616C9.03366 17.707 8.33366 17.007 8.33366 16.1445C8.33366 15.282 9.03366 14.582 9.89616 14.582H33.8545C34.3274 14.582 34.7732 14.7966 35.0691 15.1612C35.367 15.5299 35.4816 16.0091 35.3816 16.4716L30.6941 38.3466C30.5399 39.0674 29.9045 39.582 29.167 39.582Z" fill="#009245"/>
<path d="M46.8753 39.582H44.7919C43.9294 39.582 43.2294 38.882 43.2294 38.0195C43.2294 37.157 43.9294 36.457 44.7919 36.457H45.6128L46.8732 30.5716C46.7899 26.9091 43.7857 23.957 40.1044 23.957H33.7773L31.0982 36.457H36.4586C37.3211 36.457 38.0211 37.157 38.0211 38.0195C38.0211 38.882 37.3211 39.582 36.4586 39.582H29.1669C28.694 39.582 28.2482 39.3674 27.9523 39.0029C27.6544 38.6341 27.5398 38.1549 27.6398 37.6924L30.9878 22.0674C31.1419 21.3466 31.7774 20.832 32.5149 20.832H40.1044C45.5607 20.832 50.0003 25.2716 50.0003 30.7279C50.0003 30.8383 49.9899 30.9466 49.9649 31.0549L48.4024 38.3466C48.2482 39.0674 47.6128 39.582 46.8753 39.582Z" fill="#009245"/>
<path d="M40.625 43.75C37.7542 43.75 35.4167 41.4146 35.4167 38.5417C35.4167 35.6688 37.7542 33.3333 40.625 33.3333C43.4958 33.3333 45.8333 35.6688 45.8333 38.5417C45.8333 41.4146 43.4958 43.75 40.625 43.75ZM40.625 36.4583C39.4771 36.4583 38.5417 37.3917 38.5417 38.5417C38.5417 39.6917 39.4771 40.625 40.625 40.625C41.7729 40.625 42.7083 39.6917 42.7083 38.5417C42.7083 37.3917 41.7729 36.4583 40.625 36.4583ZM17.7083 43.75C14.8375 43.75 12.5 41.4146 12.5 38.5417C12.5 35.6688 14.8375 33.3333 17.7083 33.3333C20.5792 33.3333 22.9167 35.6688 22.9167 38.5417C22.9167 41.4146 20.5792 43.75 17.7083 43.75ZM17.7083 36.4583C16.5604 36.4583 15.625 37.3917 15.625 38.5417C15.625 39.6917 16.5604 40.625 17.7083 40.625C18.8562 40.625 19.7917 39.6917 19.7917 38.5417C19.7917 37.3917 18.8562 36.4583 17.7083 36.4583ZM13.0208 21.875H5.72917C4.86667 21.875 4.16667 21.175 4.16667 20.3125C4.16667 19.45 4.86667 18.75 5.72917 18.75H13.0208C13.8833 18.75 14.5833 19.45 14.5833 20.3125C14.5833 21.175 13.8833 21.875 13.0208 21.875ZM13.0208 28.125H3.64583C2.78333 28.125 2.08333 27.425 2.08333 26.5625C2.08333 25.7 2.78333 25 3.64583 25H13.0208C13.8833 25 14.5833 25.7 14.5833 26.5625C14.5833 27.425 13.8833 28.125 13.0208 28.125ZM13.0208 34.375H1.5625C0.7 34.375 0 33.675 0 32.8125C0 31.95 0.7 31.25 1.5625 31.25H13.0208C13.8833 31.25 14.5833 31.95 14.5833 32.8125C14.5833 33.675 13.8833 34.375 13.0208 34.375Z" fill="#009245"/>
</g>
<defs>
<clipPath id="clip0_1003_3150">
<rect width="50" height="50" fill="white"/>
</clipPath>
</defs>
</svg>
