<svg width="40" height="32" viewBox="0 0 40 32" fill="none" xmlns="http://www.w3.org/2000/svg">
<path d="M-6.99382e-07 16C-3.13852e-07 24.8199 7.17641 31.9998 15.992 31.9998C28.8656 32.0598 39.1804 17.76 39.6202 17.16C39.8601 16.82 40 16.4 40 16C40 15.6 39.8801 15.18 39.6202 14.84C39.1804 14.24 28.8856 -0.0598081 15.992 0.000190036C7.17641 0.000190421 -1.08491e-06 7.18011 -6.99382e-07 16ZM23.988 16C23.988 20.4199 20.4098 23.9999 15.992 23.9999C11.5742 23.9999 7.996 20.4199 7.996 16C7.996 11.5801 11.5742 8.00009 15.992 8.00009C20.4098 8.00009 23.988 11.5801 23.988 16Z" fill="#009444"/>
</svg>
