<svg width="24" height="24" viewBox="0 0 24 24" fill="none" xmlns="http://www.w3.org/2000/svg">
<g clip-path="url(#clip0_1362_3283)">
<mask id="mask0_1362_3283" style="mask-type:luminance" maskUnits="userSpaceOnUse" x="0" y="0" width="24" height="24">
<path d="M24 0H0V24H24V0Z" fill="white"/>
</mask>
<g mask="url(#mask0_1362_3283)">
<path d="M15.9998 9.37456C15.8478 9.37456 15.6958 9.31855 15.5758 9.19855L13.9758 7.59848C13.7438 7.36647 13.7438 6.98246 13.9758 6.75045C14.2078 6.51844 14.5918 6.51844 14.8238 6.75045L15.9998 7.9265L18.7758 5.15838C19.0078 4.92637 19.3918 4.92637 19.6238 5.15838C19.8558 5.39039 19.8558 5.77441 19.6238 6.00642L16.4238 9.20655C16.3038 9.31055 16.1518 9.37456 15.9998 9.37456Z" fill="#009245"/>
<path d="M11.2401 14.3604L9.76008 15.8405C9.44807 16.1525 8.95207 16.1525 8.63206 15.8485C8.54406 15.7605 8.45606 15.6805 8.36806 15.5925C7.54405 14.7604 6.80004 13.8884 6.13603 12.9764C5.48002 12.0643 4.95201 11.1523 4.56801 10.2483C4.192 9.33622 4 8.46419 4 7.63215C4 7.08813 4.096 6.56811 4.288 6.08809C4.48001 5.60007 4.78401 5.15205 5.20802 4.75203C5.72002 4.24801 6.28003 4 6.87204 4C7.09604 4 7.32005 4.048 7.52005 4.14401C7.72805 4.24001 7.91205 4.38402 8.05606 4.59202L9.91208 7.20813C10.0561 7.40814 10.1601 7.59215 10.2321 7.76816C10.3041 7.93616 10.3441 8.10417 10.3441 8.25618C10.3441 8.44818 10.2881 8.64019 10.1761 8.8242C10.0721 9.00821 9.92008 9.20022 9.72808 9.39222L9.12007 10.0243C9.03207 10.1123 8.99207 10.2163 8.99207 10.3443C8.99207 10.4083 9.00007 10.4643 9.01607 10.5283C9.04007 10.5923 9.06407 10.6403 9.08007 10.6883C9.22407 10.9523 9.47207 11.2963 9.82408 11.7123C10.1841 12.1283 10.5681 12.5524 10.9841 12.9764C11.0641 13.0564 11.1521 13.1364 11.2321 13.2164C11.5521 13.5284 11.5601 14.0404 11.2401 14.3604Z" fill="#009245"/>
<path d="M19.9767 17.065C19.9767 17.289 19.9367 17.521 19.8567 17.745C19.8327 17.809 19.8087 17.873 19.7767 17.937C19.6407 18.225 19.4647 18.497 19.2327 18.753C18.8407 19.185 18.4087 19.4971 17.9207 19.6971C17.9127 19.6971 17.9047 19.7051 17.8967 19.7051C17.4247 19.8971 16.9127 20.0011 16.3607 20.0011C15.5446 20.0011 14.6726 19.8091 13.7526 19.4171C12.8326 19.025 11.9126 18.497 11.0006 17.833C10.6886 17.601 10.3766 17.369 10.0806 17.121L12.6966 14.5048C12.9206 14.6729 13.1206 14.8009 13.2886 14.8889C13.3286 14.9049 13.3766 14.9289 13.4326 14.9529C13.4966 14.9769 13.5606 14.9849 13.6326 14.9849C13.7686 14.9849 13.8726 14.9369 13.9606 14.8489L14.5686 14.2488C14.7686 14.0488 14.9606 13.8968 15.1446 13.8008C15.3286 13.6888 15.5126 13.6328 15.7126 13.6328C15.8646 13.6328 16.0246 13.6648 16.2007 13.7368C16.3767 13.8088 16.5607 13.9128 16.7607 14.0488L19.4087 15.9289C19.6167 16.0729 19.7607 16.2409 19.8487 16.4409C19.9287 16.6409 19.9767 16.8409 19.9767 17.065Z" fill="#009245"/>
</g>
</g>
<defs>
<clipPath id="clip0_1362_3283">
<rect width="24" height="24" fill="white"/>
</clipPath>
</defs>
</svg>
