<svg width="50" height="50" viewBox="0 0 50 50" fill="none" xmlns="http://www.w3.org/2000/svg">
<path d="M42.1874 20.3117C42.1954 17.3316 41.4284 14.4006 39.9617 11.8064C38.4949 9.21221 36.3789 7.04395 33.8212 5.51445C31.2635 3.98495 28.352 3.14676 25.3726 3.08216C22.3931 3.01756 19.4481 3.72877 16.8265 5.14597C14.2049 6.56318 11.9968 8.63768 10.419 11.1659C8.84123 13.6941 7.9479 16.5891 7.82672 19.5667C7.70554 22.5444 8.36068 25.5024 9.72783 28.1505C11.095 30.7985 13.1272 33.0456 15.6249 34.6711V45.3117C15.6265 45.5425 15.6791 45.7701 15.7791 45.9782C15.879 46.1862 16.0238 46.3695 16.2031 46.5149C16.3815 46.6622 16.5903 46.768 16.8146 46.8247C17.0389 46.8815 17.273 46.8877 17.4999 46.843L24.9999 45.3117L32.4999 46.8742H32.8124C33.2268 46.8742 33.6243 46.7096 33.9173 46.4166C34.2103 46.1236 34.3749 45.7262 34.3749 45.3117V34.7024C36.7714 33.1428 38.7409 31.01 40.105 28.4972C41.4692 25.9844 42.185 23.171 42.1874 20.3117ZM31.2499 43.4055L26.5624 42.468V37.4211C28.1696 37.2753 29.7479 36.9018 31.2499 36.3117V43.4055ZM24.9999 34.3743C24.5855 34.3743 24.1881 34.5389 23.8951 34.8319C23.6021 35.1249 23.4374 35.5224 23.4374 35.9367V42.468L18.7499 43.4055V33.843C18.7539 33.7806 18.7539 33.7179 18.7499 33.6555C18.7604 33.5516 18.7604 33.4469 18.7499 33.343C18.6758 33.158 18.5759 32.9844 18.4531 32.8274C18.3777 32.7458 18.2939 32.6725 18.2031 32.6086C18.1589 32.564 18.1119 32.5222 18.0624 32.4836C15.1061 30.7729 12.8735 28.0446 11.7814 24.8083C10.6894 21.5719 10.8125 18.0487 12.1279 14.8965C13.4433 11.7443 15.861 9.17865 18.9296 7.67852C21.9982 6.17839 25.5079 5.84637 28.8033 6.74445C32.0988 7.64254 34.9547 9.70933 36.8379 12.5589C38.7211 15.4085 39.5027 18.8461 39.0369 22.2298C38.5712 25.6136 36.8898 28.7121 34.3067 30.9469C31.7236 33.1817 28.4155 34.4 24.9999 34.3743Z" fill="#009245"/>
<path d="M33.6247 16.0465L28.9372 14.7496L26.2966 10.7183C26.1537 10.5056 25.9606 10.3314 25.7345 10.2109C25.5083 10.0904 25.256 10.0273 24.9997 10.0273C24.7435 10.0273 24.4912 10.0904 24.265 10.2109C24.0388 10.3314 23.8458 10.5056 23.7029 10.7183L21.0154 14.734L16.3279 16.0308C16.0865 16.1115 15.8685 16.2499 15.6928 16.434C15.5172 16.6181 15.3891 16.8424 15.3198 17.0872C15.2505 17.3321 15.2421 17.5902 15.2952 17.839C15.3483 18.0879 15.4615 18.32 15.6247 18.5152L18.6247 22.2965L18.4216 27.1246C18.4049 27.3851 18.4537 27.6457 18.5636 27.8825C18.6736 28.1193 18.8411 28.3248 19.0509 28.4802C19.2606 28.6356 19.506 28.7359 19.7646 28.7721C20.0231 28.8082 20.2866 28.779 20.531 28.6871L24.9997 26.984L29.531 28.6558C29.7753 28.7477 30.0388 28.777 30.2974 28.7408C30.5559 28.7047 30.8013 28.6043 31.0111 28.4489C31.2209 28.2935 31.3884 28.088 31.4983 27.8512C31.6082 27.6144 31.6571 27.3539 31.6404 27.0933L31.4372 22.2652L34.3747 18.5152C34.5333 18.3138 34.6399 18.0766 34.6852 17.8243C34.7304 17.572 34.7129 17.3124 34.6342 17.0685C34.5554 16.8246 34.4179 16.6037 34.2337 16.4255C34.0495 16.2473 33.8242 16.1171 33.5779 16.0465H33.6247ZM28.6247 20.8277C28.396 21.1214 28.2796 21.4871 28.2966 21.859L28.4216 24.984L25.5466 23.9215C25.1939 23.7897 24.8055 23.7897 24.4529 23.9215L21.5779 24.984L21.7029 21.859C21.7198 21.4871 21.6035 21.1214 21.3747 20.8277L19.4685 18.4215L22.4216 17.5933C22.7804 17.4911 23.0908 17.2639 23.2966 16.9527L24.9997 14.4058L26.7029 16.9527C26.9087 17.2639 27.2191 17.4911 27.5779 17.5933L30.531 18.4215L28.6247 20.8277Z" fill="#009245"/>
</svg>
